<?xml version="1.0" encoding="utf-8"?>
<!-- Generator: Adobe Illustrator 24.3.0, SVG Export Plug-In . SVG Version: 6.00 Build 0)  -->
<svg version="1.1" id="Layer_1" xmlns="http://www.w3.org/2000/svg" xmlns:xlink="http://www.w3.org/1999/xlink" x="0px" y="0px"
	 viewBox="0 0 1000 1000" style="enable-background:new 0 0 1000 1000;" xml:space="preserve">
<style type="text/css">
	.st0{fill:#FFFFFF;}
</style>
<g>
	<path class="st0" d="M298.4,577.5l189-109.2c0.3-0.1,0.4-0.3,0.7-0.4c0.9-0.6,1.8-1,2.6-1.5c2.8-1.2,6-1.9,9.2-1.9
		c3.2,0,6.4,0.7,9.2,1.9c0.9,0.4,1.8,0.9,2.6,1.5c0.3,0.1,0.4,0.3,0.7,0.4l189,109.2l22.4-38.7c0.4-0.4,0.6-0.9,0.9-1.3
		c3.2-6,5.1-12.9,5.1-20.2c0-14.8-7.7-27.8-19.6-35.5c-1.3-0.9-2.8-1.8-4.4-2.5L512.4,367.4l-0.1-0.1c-2.9-1.8-6.4-3.1-10.1-3.4
		c-0.7-0.1-1.5-0.1-2.2-0.1c-0.7,0-1.5,0-2.2,0.1c-3.7,0.3-7.2,1.6-10.1,3.4c-0.1,0.1-0.1,0.1-0.3,0.1L293.9,479.2
		c-1.5,0.9-2.8,1.6-4.1,2.5c-11.8,7.7-19.6,20.8-19.6,35.5c0,7.5,1.9,14.5,5.4,20.6L298.4,577.5z"/>
	<path class="st0" d="M487.3,152.9c0.1,0.1,0.3,0.3,0.6,0.3l31.9,18.4c4.1-1.2,8.6-1.9,13.2-1.9c12.1,0,23.2,4.8,31.3,12.6
		c0.9,1,1.9,2,2.9,3.1c14,13.4,32.9,22.4,53.7,24.3h0.1c2.8,0.3,5.6,0.4,8.5,0.4c23.7,0,45.3-8.9,61.3-24c3.9-3.8,6.4-9.2,6.4-15.1
		c0-7.5-3.8-14-9.7-17.8l-30.6-17.7c-7.5,5.7-17,9.1-27.2,9.1c-9.5,0-18.3-2.9-25.4-7.7c-4.8-3.2-7.9-8.2-12-12.1
		c-13.3-12.6-30.6-18.6-49.1-20.2c-2.8-0.3-5.6-0.4-8.5-0.4c-17.4,0-33.6,4.8-47.2,13.3c-5.8,3.9-9.8,10.4-9.8,17.8
		C477.7,142.6,481.5,149.1,487.3,152.9z"/>
	<path class="st0" d="M306.7,364.3l4.8,8.2l20.2,35.1l155.8-89.8c0.6-0.3,1.2-0.7,1.9-0.9c3.1-1.9,6.7-2.8,10.5-2.8
		c4.1,0,8,1,11.3,3.1c0.6,0.3,1.2,0.6,1.6,0.9l155.7,89.9l20.9-36.4c0.9-1.2,1.6-2.5,2.3-3.7c3.4-6.1,5.3-13,5.3-20.3
		c0-13.7-6.7-25.9-17.1-33.8c0,0,0-0.1-0.1-0.1l-9.2-5.4c-0.1-0.1-0.4-0.1-0.7-0.3l-83.6-48.4l-24.9-14.3l-13.9-7.9l-35.1-20.3
		l-0.1-0.1l-2.3-1.3c-2.3-1.2-5-1.9-7.7-2c-0.7-0.1-1.5-0.1-2.2-0.1c-0.7,0-1.5,0-2.2,0.1c-2.6,0.1-5,0.9-7.2,1.8
		c-0.1,0.1-0.3,0.3-0.4,0.3c-0.4,0.1-0.9,0.4-1.3,0.7c-0.4,0.1-0.9,0.4-1.3,0.7l-28.9,16.7l-2.9,1.8l-125.3,72.5
		c-0.6,0.3-1.2,0.4-1.6,0.7l-7.3,4.2l-0.3,0.1c-11,7.9-18,20.5-18,34.5c0,5.8,1.2,11.4,3.4,16.4
		C306.6,364.2,306.7,364.2,306.7,364.3z"/>
	<path class="st0" d="M743.8,650.4c0,0-0.1,0-0.3-0.1l-4.4-2.5c0,0-0.1-0.1-0.3-0.1l-197.6-114l-28.1-16.2l-2.6-1.6h-0.1
		c-2.5-1.5-5.3-2.3-8.3-2.5c-0.7-0.1-1.3-0.1-2-0.1c-0.7,0-1.3,0-2,0.1c-3.1,0.1-5.8,1-8.3,2.5l-2.8,1.6L261.4,647.5
		c-0.1,0-0.3,0.1-0.3,0.1l-4.7,2.6c-0.3,0.1-0.4,0.3-0.6,0.4c-11.5,7.7-19,20.6-19,35.2c0,6.7,1.6,13,4.5,18.6l2.8,5
		c0.1,0.1,0.1,0.3,0.3,0.4l20.8,36.1l3.1,5.4c16.2-4.2,33.2-6.4,50.7-6.4c73.4,0,129.7,44,171.2,96.3
		c30.4,38.3,84.1,54.5,137.6,54.5c7.2,0,14.2-0.4,21.2-1.2l36.7-63.4l49.1-85.2l23-39.6c3.5-6.1,5.4-13,5.4-20.5
		C763.1,671.2,755.5,658.2,743.8,650.4z"/>
</g>
</svg>
